<svg width="88" height="88" viewBox="0 0 88 88" fill="none" xmlns="http://www.w3.org/2000/svg">
<path d="M38.6836 10.5447L16.8486 22.6667C15.1445 23.6166 13.7258 25.0055 12.7399 26.6891C11.7541 28.3726 11.2369 30.2894 11.2422 32.2404V55.7584C11.2376 57.7087 11.755 59.6247 12.7409 61.3076C13.7267 62.9904 15.145 64.3787 16.8486 65.3284L38.6909 77.454C40.3157 78.3582 42.1444 78.8327 44.0039 78.8327C45.8634 78.8327 47.6921 78.3582 49.3169 77.454L71.1592 65.332C72.8633 64.3821 74.282 62.9932 75.2679 61.3097C76.2537 59.6261 76.7709 57.7093 76.7656 55.7584V32.2404C76.7702 30.29 76.2528 28.374 75.2669 26.6911C74.2811 25.0083 72.8628 23.62 71.1592 22.6704L49.3169 10.5447C47.6921 9.64055 45.8634 9.16602 44.0039 9.16602C42.1444 9.16602 40.3157 9.64055 38.6909 10.5447H38.6836Z" stroke="white" stroke-width="2"/>
<path d="M74.5398 25.6504L43.9965 43.9984M43.9965 43.9984L13.4531 25.6504M43.9965 43.9984V78.7951" stroke="white" stroke-width="2"/>
</svg>
