<svg width="63" height="66" viewBox="0 0 63 66" fill="none" xmlns="http://www.w3.org/2000/svg">
<path d="M26.3307 36.6667V22C26.3307 19.9833 24.6807 18.3333 22.6641 18.3333H7.9974V11H26.3307V3.66667H17.1641V0H9.83073V3.66667H4.33073C2.31406 3.66667 0.664062 5.31667 0.664062 7.33333V22C0.664062 24.0167 2.31406 25.6667 4.33073 25.6667H18.9974V33H0.664062V40.3333H9.83073V44H17.1641V40.3333H22.6641C24.6807 40.3333 26.3307 38.6833 26.3307 36.6667ZM57.8274 34.9067L37.0741 55.6233L26.6974 45.2467L21.5274 50.4533L37.0741 66L62.9974 40.0767L57.8274 34.9067Z" fill="white"/>
</svg>
