<svg width="88" height="88" viewBox="0 0 88 88" fill="none" xmlns="http://www.w3.org/2000/svg">
<g clip-path="url(#clip0_422_2233)">
<path d="M36.6667 25.6667L34.7747 30.778C32.296 37.4807 31.0567 40.832 28.611 43.2777C26.1653 45.7233 22.814 46.9627 16.1113 49.4413L11 51.3333L16.1113 53.2253C22.814 55.704 26.1653 56.947 28.611 59.389C31.0567 61.831 32.296 65.186 34.7747 71.8887L36.6667 77L38.5587 71.8887C41.0373 65.186 42.2803 61.8347 44.7223 59.389C47.1643 56.9433 50.5193 55.704 57.222 53.2253L62.3333 51.3333L57.222 49.4413C50.5193 46.9627 47.168 45.7233 44.7223 43.2777C42.2767 40.832 41.0373 37.4807 38.5587 30.778L36.6667 25.6667ZM66 11L65.1897 13.189C64.1263 16.0637 63.5947 17.501 62.5497 18.546C61.501 19.5947 60.0637 20.1263 57.189 21.186L55 22L57.1927 22.8103C60.0637 23.8737 61.501 24.4053 62.546 25.4503C63.5947 26.499 64.1263 27.9363 65.186 30.811L66 33L66.8103 30.811C67.8737 27.9363 68.4053 26.499 69.4503 25.454C70.499 24.4053 71.9363 23.8737 74.811 22.814L77 22L74.8073 21.1897C71.9363 20.1263 70.499 19.5947 69.454 18.5497C68.4053 17.501 67.8737 16.0637 66.814 13.189L66 11Z" stroke="white" stroke-width="2" stroke-linecap="round" stroke-linejoin="round"/>
</g>
<defs>
<clipPath id="clip0_422_2233">
<rect width="88" height="88" fill="white"/>
</clipPath>
</defs>
</svg>
