<svg width="88" height="88" viewBox="0 0 88 88" fill="none" xmlns="http://www.w3.org/2000/svg">
<g clip-path="url(#clip0_419_2034)">
<rect width="88" height="88" fill="#0A0D11"/>
<path d="M16.5 81.666H36.667C37.0729 81.6661 37.4641 81.8075 37.7754 82.0625L37.9043 82.1787C38.2324 82.5069 38.417 82.952 38.417 83.416C38.417 83.8222 38.2757 84.214 38.0205 84.5254L37.9043 84.6533C37.5762 84.9814 37.131 85.1659 36.667 85.166H16.5C16.0938 85.166 15.7021 85.0248 15.3906 84.7695L15.2627 84.6533C14.9345 84.3251 14.75 83.8801 14.75 83.416C14.75 83.0098 14.8912 82.6181 15.1465 82.3066L15.2627 82.1787C15.5909 81.8505 16.0359 81.666 16.5 81.666ZM51.333 71.583H69.6748C69.6899 71.5835 69.7165 71.5843 69.7529 71.5869C69.8266 71.5922 69.9385 71.6032 70.0752 71.626C70.3535 71.6724 70.7091 71.7637 71.0527 71.9355C71.3924 72.1054 71.7021 72.3447 71.9287 72.6846C72.151 73.0181 72.333 73.5078 72.333 74.249V81.5908C72.3325 81.6059 72.3317 81.6325 72.3291 81.6689C72.3238 81.7426 72.3128 81.8545 72.29 81.9912C72.2437 82.2695 72.1523 82.6251 71.9805 82.9688C71.8106 83.3085 71.5713 83.6181 71.2314 83.8447C70.8979 84.067 70.4082 84.249 69.667 84.249H51.3252C51.3101 84.2485 51.2835 84.2477 51.2471 84.2451C51.1734 84.2399 51.0615 84.2288 50.9248 84.2061C50.6465 84.1597 50.2909 84.0683 49.9473 83.8965C49.6076 83.7266 49.2979 83.4874 49.0713 83.1475C48.849 82.8139 48.667 82.3242 48.667 81.583V74.2412C48.6675 74.2261 48.6683 74.1995 48.6709 74.1631C48.6762 74.0894 48.6872 73.9776 48.71 73.8408C48.7563 73.5626 48.8477 73.2069 49.0195 72.8633C49.1894 72.5236 49.4287 72.2139 49.7686 71.9873C50.1021 71.765 50.5918 71.5831 51.333 71.583ZM16.5 70.666H36.667C37.0729 70.6661 37.4641 70.8075 37.7754 71.0625L37.9043 71.1787C38.2324 71.5069 38.417 71.952 38.417 72.416C38.417 72.8222 38.2757 73.214 38.0205 73.5254L37.9043 73.6533C37.5762 73.9814 37.131 74.1659 36.667 74.166H16.5C16.0938 74.166 15.7021 74.0248 15.3906 73.7695L15.2627 73.6533C14.9345 73.3251 14.75 72.8801 14.75 72.416C14.75 72.0098 14.8912 71.6181 15.1465 71.3066L15.2627 71.1787C15.5909 70.8505 16.0359 70.666 16.5 70.666Z" fill="#0A0D11" stroke="white" stroke-width="2"/>
<path d="M11 2.83398H77C79.4864 2.83398 81.8775 3.75987 83.7119 5.4209L84.0713 5.7627C85.9467 7.63806 87 10.1818 87 12.834V82.207C87 82.8258 86.7852 83.423 86.3965 83.8975L86.2188 84.0928C85.7187 84.5929 85.0402 84.874 84.333 84.874C83.6259 84.8739 82.9473 84.5928 82.4473 84.0928C81.9474 83.5927 81.667 82.9141 81.667 82.207V21.084C81.667 20.6391 81.512 20.2102 81.2324 19.8691L81.1055 19.7285L80.9648 19.6016C80.6238 19.322 80.1949 19.167 79.75 19.167H8.25C7.80513 19.167 7.37625 19.322 7.03516 19.6016L6.89453 19.7285C6.53509 20.088 6.33301 20.5757 6.33301 21.084V82.207C6.33301 82.8259 6.11831 83.4229 5.72949 83.8975L5.55273 84.0928C5.05271 84.5928 4.37412 84.8739 3.66699 84.874C3.04822 84.874 2.45106 84.6592 1.97656 84.2705L1.78125 84.0928C1.28115 83.5927 1 82.9143 1 82.207V12.834L1.0127 12.3379C1.12719 10.0311 2.03667 7.83413 3.58691 6.12207L3.92871 5.7627C5.80407 3.88733 8.34784 2.83398 11 2.83398ZM12.833 6.33398C11.5954 6.33407 10.4083 6.82608 9.5332 7.70117C8.65824 8.57631 8.16699 9.76345 8.16699 11.001C8.16708 12.2385 8.65811 13.4257 9.5332 14.3008C10.4083 15.1759 11.5954 15.6669 12.833 15.667C14.0705 15.667 15.2577 15.1757 16.1328 14.3008C17.0079 13.4257 17.4999 12.2385 17.5 11.001C17.5 9.7633 17.008 8.57634 16.1328 7.70117C15.2576 6.826 14.0707 6.33398 12.833 6.33398ZM25.667 6.33398C24.4293 6.33398 23.2424 6.826 22.3672 7.70117C21.492 8.57634 21 9.7633 21 11.001C21.0001 12.2385 21.4921 13.4257 22.3672 14.3008C23.2423 15.1757 24.4295 15.667 25.667 15.667C26.9046 15.6669 28.0917 15.1759 28.9668 14.3008C29.8419 13.4257 30.3329 12.2385 30.333 11.001C30.333 9.76345 29.8418 8.57631 28.9668 7.70117C28.0917 6.82608 26.9046 6.33407 25.667 6.33398ZM38.5 6.33398C37.2623 6.33398 36.0754 6.826 35.2002 7.70117C34.3251 8.57633 33.833 9.76338 33.833 11.001C33.8331 12.2385 34.3251 13.4257 35.2002 14.3008C36.0753 15.1758 37.2624 15.667 38.5 15.667C39.7376 15.667 40.9247 15.1758 41.7998 14.3008C42.6749 13.4257 43.1669 12.2385 43.167 11.001C43.167 9.76337 42.6749 8.57633 41.7998 7.70117C40.9246 6.826 39.7377 6.33398 38.5 6.33398Z" fill="#0A0D11" stroke="white" stroke-width="2"/>
<path d="M72.3311 29.2695V58.4365H15.6641V29.2695H72.3311ZM53.4941 37.0713C52.3906 37.0713 51.3253 37.4624 50.4854 38.1709L50.335 38.3027L34.8252 52.126L32.8662 53.873H72.0605L70.375 52.1699L56.6982 38.3467L56.6836 38.3311L56.667 38.3164L56.5029 38.1709C55.663 37.4624 54.5977 37.0713 53.4941 37.0713ZM28.3662 35.7285C27.62 35.4195 26.8085 35.31 26.0107 35.4082L25.6699 35.4629C24.8781 35.6205 24.1428 35.9803 23.5342 36.5049L23.2812 36.7393C22.7103 37.3102 22.2986 38.0186 22.084 38.793L22.0039 39.1289C21.8463 39.9211 21.8975 40.7387 22.1494 41.502L22.2695 41.8252C22.5786 42.5713 23.0746 43.2231 23.708 43.7178L23.9883 43.9199C24.7557 44.4326 25.6582 44.7061 26.5811 44.7061C27.8186 44.706 29.0058 44.2149 29.8809 43.3398C30.756 42.4647 31.2471 41.2767 31.2471 40.0391C31.247 39.2317 31.0374 38.4405 30.6416 37.7412L30.4609 37.4473C30.0123 36.7759 29.3983 36.2337 28.6807 35.8721L28.3662 35.7285Z" fill="#0A0D11" stroke="white" stroke-width="2"/>
</g>
<defs>
<clipPath id="clip0_419_2034">
<rect width="88" height="88" fill="white"/>
</clipPath>
</defs>
</svg>
