<svg width="88" height="88" viewBox="0 0 88 88" fill="none" xmlns="http://www.w3.org/2000/svg">
<path d="M66 57.75H71.5V71.5H66V57.75ZM55 44H60.5V71.5H55V44ZM30.25 71.5C26.6046 71.4956 23.1098 70.0456 20.5321 67.4679C17.9544 64.8902 16.5044 61.3954 16.5 57.75H22C22 59.3817 22.4839 60.9767 23.3904 62.3335C24.2969 63.6902 25.5854 64.7476 27.0929 65.372C28.6004 65.9964 30.2592 66.1598 31.8595 65.8415C33.4598 65.5232 34.9298 64.7374 36.0836 63.5836C37.2374 62.4298 38.0232 60.9598 38.3415 59.3595C38.6598 57.7592 38.4964 56.1004 37.872 54.5929C37.2476 53.0854 36.1902 51.7969 34.8335 50.8904C33.4767 49.9839 31.8817 49.5 30.25 49.5V44C33.8967 44 37.3941 45.4487 39.9727 48.0273C42.5513 50.6059 44 54.1033 44 57.75C44 61.3967 42.5513 64.8941 39.9727 67.4727C37.3941 70.0513 33.8967 71.5 30.25 71.5Z" fill="white"/>
<path d="M77 5.5H11C9.54131 5.5 8.14236 6.07946 7.11091 7.11091C6.07946 8.14236 5.5 9.54131 5.5 11V77C5.5 78.4587 6.07946 79.8576 7.11091 80.8891C8.14236 81.9205 9.54131 82.5 11 82.5H77C78.458 82.4978 79.8557 81.9177 80.8867 80.8867C81.9177 79.8557 82.4978 78.458 82.5 77V11C82.5 9.54131 81.9205 8.14236 80.8891 7.11091C79.8576 6.07946 78.4587 5.5 77 5.5ZM77 30.25H38.5V11H77V30.25ZM33 11V30.25H11V11H33ZM11 77V35.75H77L77.0055 77H11Z" fill="white"/>
</svg>
