<svg width="90" height="98" viewBox="0 0 90 98" fill="none" xmlns="http://www.w3.org/2000/svg">
<path d="M15.6875 35.9161L3.4443 52.2404C1.73369 54.5208 0.874296 57.3276 1.01487 60.1749C1.15545 63.0221 2.28716 65.7306 4.21408 67.8315L27.332 93.051C29.6413 95.5742 32.9037 97.0099 36.3311 97.0099H64.5625C79.225 97.0099 89 87.8458 89 72.5724V20.2089C89 6.24287 70.6719 6.24287 70.6719 20.2089V23.6974" stroke="white" stroke-width="2" stroke-linecap="round" stroke-linejoin="round"/>
<path d="M52.3359 23.6963V14.6972M52.3359 14.6972V11.4775M52.3359 14.6972C52.3359 0.731148 70.6641 0.731148 70.6641 14.6972V23.6963" stroke="white" stroke-width="2" stroke-linecap="round" stroke-linejoin="round"/>
<path d="M70.6641 23.6933V14.6942C70.6641 0.728132 52.3359 0.728132 52.3359 14.6942V23.6933V11.4745C52.3359 -2.49151 34.0078 -2.49151 34.0078 11.4745V23.6933V10.7658C34.0078 5.70116 29.9023 2.31046 24.8438 2.31046C22.4133 2.31046 20.0824 3.27596 18.3638 4.99455C16.6452 6.71315 15.6797 9.04406 15.6797 11.4745V54.2402" stroke="white" stroke-width="2" stroke-linecap="round" stroke-linejoin="round"/>
</svg>
