<svg width="24" height="24" viewBox="0 0 24 24" fill="none" xmlns="http://www.w3.org/2000/svg">
<path d="M12.3076 15.471L12.3836 14.407L13.3106 13.878C14.2009 13.3626 15.0188 12.731 15.7426 12C18.3826 9.35898 19.1886 6.25398 18.2176 5.28198C17.2456 4.31198 14.1406 5.11598 11.4996 7.75698C10.7396 8.51698 10.1026 9.34698 9.62156 10.189L9.09156 11.116L8.02856 11.192C7.15617 11.2529 6.32832 11.6002 5.67356 12.18C6.92334 12.7303 8.0597 13.5086 9.02456 14.475C10.0046 15.455 10.7766 16.592 11.3196 17.826C11.8993 17.1712 12.2466 16.3434 12.3076 15.471ZM9.33456 18.3C9.13255 18.5727 8.91096 18.8304 8.67156 19.071C7.49956 20.243 5.73156 20.5963 3.36756 20.131C2.90423 17.7676 3.25756 16 4.42756 14.828C4.67556 14.5813 4.9329 14.3603 5.19956 14.165C4.37962 13.7649 3.50361 13.4917 2.60156 13.355C2.89293 12.4437 3.39797 11.6154 4.07456 10.939C5.09312 9.91826 6.44619 9.29997 7.88456 9.19798C8.48798 8.15292 9.22781 7.19282 10.0846 6.34298C13.4046 3.02298 17.6786 1.91598 19.6316 3.86798C21.5836 5.82098 20.4756 10.095 17.1566 13.414C16.3067 14.2707 15.3466 15.0106 14.3016 15.614C14.1996 17.0523 13.5813 18.4054 12.5606 19.424C11.8853 20.1022 11.0566 20.6078 10.1446 20.898C10.0078 19.9959 9.73469 19.1199 9.33456 18.3ZM7.60956 15.89C7.44854 15.7286 7.26698 15.589 7.06956 15.475C6.63756 15.625 6.12956 15.955 5.66456 16.419C5.44556 16.639 5.17756 17.378 5.17456 18.324C6.12056 18.321 6.86256 18.05 7.07956 17.834C7.54456 17.368 7.87456 16.861 8.02356 16.429C7.90981 16.2316 7.77062 16.0501 7.60956 15.889V15.89ZM15.3876 8.10998C15.2899 8.01825 15.2116 7.90783 15.1575 7.78527C15.1033 7.66271 15.0743 7.53052 15.0722 7.39654C15.0702 7.26256 15.095 7.12953 15.1454 7.00535C15.1957 6.88117 15.2705 6.76837 15.3653 6.67365C15.46 6.57894 15.5729 6.50424 15.6971 6.45399C15.8213 6.40374 15.9544 6.37897 16.0884 6.38114C16.2223 6.38332 16.3545 6.4124 16.477 6.46665C16.5995 6.52091 16.7099 6.59923 16.8016 6.69698C16.974 6.88714 17.0667 7.13633 17.0605 7.39295C17.0542 7.64957 16.9496 7.89397 16.7681 8.07555C16.5867 8.25712 16.3423 8.36197 16.0857 8.36838C15.8291 8.37479 15.5799 8.28227 15.3896 8.10998H15.3876Z" fill="white"/>
</svg>
