<svg width="88" height="88" viewBox="0 0 88 88" fill="none" xmlns="http://www.w3.org/2000/svg">
<path d="M53.9367 50.7428L71.3497 43.8641C75.2473 42.3241 76.3913 42.7678 78.21 44.1299C79.2385 44.8999 79.6143 45.8349 79.7078 46.9899C79.9022 49.3934 79.442 50.9518 77.9002 51.9894C68.552 58.2759 58.5878 62.9601 46.0955 68.0953C40.0235 70.5904 31.0438 68.9441 22.9772 66.1703L12.1733 66.1281C11.6591 66.1291 11.1497 66.0287 10.6742 65.8328C10.1987 65.6369 9.76647 65.3493 9.40215 64.9863C9.03784 64.6234 8.74858 64.1922 8.55089 63.7175C8.35321 63.2427 8.25096 62.7337 8.25 62.2194V51.2891C8.25 49.1148 10.0008 47.3658 12.1733 47.3658H23.771C28.1838 41.8804 41.6167 43.7083 51.1243 44.0309C53.691 44.1189 54.6517 46.7608 53.9367 50.7428ZM53.9367 50.7428C51.4653 55.4856 45.1825 54.2298 39.27 54.4443M58.6098 33.6946L56.3493 31.4341L54.087 33.6964H52.2958M47.7712 33.6946L50.0335 31.4341L52.294 33.6946M41.5378 24.4014H59.3523L64.35 29.0489L59.3523 33.6964H58.6117M47.773 33.6964H41.5397M41.5378 33.6946L37.0205 38.2119C35.3705 39.8619 32.7158 39.8619 31.0677 38.2119L24.8783 32.0281C23.2283 30.3781 23.2283 27.7234 24.8783 26.0734L31.0658 19.8859C32.7158 18.2359 35.3705 18.2359 37.0187 19.8859L41.536 24.4033M33.6472 29.0489C33.6472 30.6329 32.3638 31.9181 30.778 31.9181C29.194 31.9181 27.907 30.6348 27.907 29.0489C27.907 27.4649 29.1903 26.1798 30.7762 26.1798C32.3602 26.1798 33.6472 27.4631 33.6472 29.0471V29.0489Z" stroke="white" stroke-width="0.666667" stroke-linecap="round" stroke-linejoin="round"/>
</svg>
