<svg width="80" height="80" viewBox="0 0 80 80" fill="none" xmlns="http://www.w3.org/2000/svg">
<path d="M32.4203 27.6793L40.2136 35.4727C41.4252 36.6767 43.0639 37.3525 44.772 37.3525C46.48 37.3525 48.1187 36.6767 49.3303 35.4727L71.2836 13.486C71.4377 13.3431 71.6401 13.2637 71.8503 13.2637C72.0605 13.2637 72.2629 13.3431 72.417 13.486L75.9403 17.0093C76.237 17.3093 76.647 17.476 77.0736 17.4627C77.2758 17.5093 77.4792 17.5093 77.6836 17.4627C77.9946 17.3357 78.2584 17.115 78.4382 16.8313C78.618 16.5475 78.705 16.2148 78.687 15.8793V2.94601C78.687 2.51724 78.5166 2.10603 78.2134 1.80285C77.9103 1.49967 77.4991 1.32934 77.0703 1.32934H64.137C63.7964 1.30391 63.4566 1.38697 63.1661 1.56662C62.8757 1.74627 62.6496 2.01327 62.5203 2.32934C62.3951 2.62222 62.3622 2.94629 62.426 3.25835C62.4897 3.57041 62.647 3.85563 62.877 4.07601L66.6936 7.76267C66.7711 7.83532 66.8329 7.92308 66.8751 8.02055C66.9174 8.11802 66.9392 8.22312 66.9392 8.32934C66.9392 8.43556 66.9174 8.54066 66.8751 8.63813C66.8329 8.7356 66.7711 8.82336 66.6936 8.89601L56.9936 18.596C48.287 -2.04733 20.5036 -5.52399 6.98362 12.3327C3.00364 17.5857 0.924663 24.0342 1.08695 30.6227C1.09362 31.7027 1.15807 32.7804 1.28029 33.856C1.37605 34.6443 1.75854 35.3698 2.35484 35.8941C2.95115 36.4185 3.71957 36.7051 4.51362 36.6993H4.90029C5.32294 36.6513 5.73197 36.5204 6.10393 36.314C6.47589 36.1077 6.80348 35.8299 7.06792 35.4967C7.33236 35.1636 7.52846 34.7815 7.64499 34.3724C7.76151 33.9633 7.79616 33.5352 7.74696 33.1127C7.69663 32.2289 7.69663 31.3431 7.74696 30.4593C8.32362 12.8993 27.697 2.54267 42.617 11.8193C47.011 14.552 50.3465 18.6962 52.077 23.5727L45.3536 30.3993C45.1941 30.5446 44.986 30.625 44.7703 30.625C44.5545 30.625 44.3465 30.5446 44.187 30.3993L36.397 22.5393C35.1854 21.3353 33.5467 20.6595 31.8386 20.6595C30.1305 20.6595 28.4918 21.3353 27.2803 22.5393L2.06029 47.726C1.45604 48.3347 1.11833 49.1585 1.12145 50.0161C1.12458 50.8738 1.46828 51.6951 2.07696 52.2993C2.68563 52.9036 3.50941 53.2413 4.36707 53.2382C5.22474 53.235 6.04604 52.8913 6.65029 52.2827L8.52696 50.4093C11.3266 53.4268 14.7111 55.8429 18.4744 57.5105C22.2377 59.1781 26.301 60.0623 30.417 60.1093C36.8451 60.1237 43.0971 58.0092 48.197 54.096C48.3467 53.9713 48.5354 53.903 48.7303 53.903C48.9252 53.903 49.1139 53.9713 49.2636 54.096L53.7903 58.6227C53.8999 58.7293 53.9767 58.865 54.0116 59.0139C54.0464 59.1628 54.0379 59.3185 53.987 59.4627C53.6791 60.3244 53.6222 61.2558 53.8228 62.1486C54.0234 63.0414 54.4734 63.8589 55.1203 64.506L67.6636 77.0827C71.0103 80.766 77.0903 79.4427 78.607 74.6993C78.985 73.5152 79.0138 72.2472 78.6899 71.0471C78.3659 69.847 77.7029 68.7657 76.7803 67.9327L64.267 55.2927C63.3535 54.3904 62.1242 53.8798 60.8403 53.8693C60.2847 53.8693 59.7458 53.966 59.2236 54.1593C59.0798 54.2107 58.9242 54.2197 58.7754 54.1855C58.6265 54.1512 58.4906 54.0751 58.3836 53.966L53.857 49.4393C53.7278 49.2917 53.6566 49.1022 53.6566 48.906C53.6566 48.7098 53.7278 48.5203 53.857 48.3727C55.8316 45.7642 57.3611 42.847 58.3836 39.7393C58.5346 39.3311 58.6017 38.8966 58.5807 38.4619C58.5598 38.0271 58.4513 37.6011 58.2617 37.2093C58.0722 36.8175 57.8054 36.468 57.4776 36.1818C57.1497 35.8955 56.7674 35.6784 56.3536 35.5435C55.9398 35.4086 55.503 35.3586 55.0694 35.3965C54.6358 35.4344 54.2143 35.5595 53.8302 35.7642C53.4462 35.9689 53.1074 36.2491 52.8341 36.5879C52.5609 36.9268 52.359 37.3172 52.2403 37.736C50.7393 42.3146 47.8304 46.302 43.9287 49.1292C40.027 51.9564 35.3319 53.4789 30.5136 53.4793C27.2638 53.4565 24.0536 52.7645 21.0829 51.4467C18.1123 50.1288 15.4449 48.2132 13.247 45.8193L31.3536 27.6793C31.5013 27.5502 31.6908 27.479 31.887 27.479C32.0831 27.479 32.2726 27.5502 32.4203 27.6793Z" fill="white"/>
</svg>
