<svg width="88" height="88" viewBox="0 0 88 88" fill="none" xmlns="http://www.w3.org/2000/svg">
<g clip-path="url(#clip0_426_2514)">
<path d="M33 16.5C33 20.8761 31.2616 25.0729 28.1673 28.1673C25.0729 31.2616 20.8761 33 16.5 33C12.1239 33 7.92709 31.2616 4.83274 28.1673C1.73839 25.0729 0 20.8761 0 16.5C0 12.1239 1.73839 7.92709 4.83274 4.83274C7.92709 1.73839 12.1239 0 16.5 0C20.8761 0 25.0729 1.73839 28.1673 4.83274C31.2616 7.92709 33 12.1239 33 16.5ZM5.5 16.5C5.5 19.4174 6.65893 22.2153 8.72183 24.2782C10.7847 26.3411 13.5826 27.5 16.5 27.5C19.4174 27.5 22.2153 26.3411 24.2782 24.2782C26.3411 22.2153 27.5 19.4174 27.5 16.5C27.5 13.5826 26.3411 10.7847 24.2782 8.72183C22.2153 6.65893 19.4174 5.5 16.5 5.5C13.5826 5.5 10.7847 6.65893 8.72183 8.72183C6.65893 10.7847 5.5 13.5826 5.5 16.5Z" fill="white"/>
<path d="M49.5 33H52.25C54.918 32.9997 57.4952 33.9691 59.5016 35.7276C61.5081 37.4861 62.807 39.914 63.1565 42.559L80.2615 34.958C81.0987 34.5849 82.016 34.427 82.9297 34.4987C83.8435 34.5703 84.725 34.8692 85.4939 35.3681C86.2628 35.867 86.8948 36.5502 87.3325 37.3556C87.7701 38.1609 87.9996 39.0629 88 39.9795V81.0205C87.9992 81.9364 87.7697 82.8376 87.3323 83.6423C86.8949 84.447 86.2635 85.1297 85.4954 85.6285C84.7272 86.1273 83.8467 86.4264 82.9336 86.4986C82.0206 86.5708 81.104 86.4138 80.267 86.042L63.1565 78.441C62.807 81.086 61.5081 83.5139 59.5016 85.2724C57.4952 87.0309 54.918 88.0003 52.25 88H11C8.08262 88 5.28473 86.8411 3.22183 84.7782C1.15893 82.7153 0 79.9174 0 77V44C0 41.0826 1.15893 38.2847 3.22183 36.2218C5.28473 34.1589 8.08262 33 11 33H49.5ZM82.5 81.015V39.985L63.25 48.5375V72.4625L82.5 81.015ZM5.5 44V77C5.5 78.4587 6.07946 79.8576 7.11091 80.8891C8.14236 81.9205 9.54131 82.5 11 82.5H52.25C53.7087 82.5 55.1076 81.9205 56.1391 80.8891C57.1705 79.8576 57.75 78.4587 57.75 77V44C57.75 42.5413 57.1705 41.1424 56.1391 40.1109C55.1076 39.0795 53.7087 38.5 52.25 38.5H11C9.54131 38.5 8.14236 39.0795 7.11091 40.1109C6.07946 41.1424 5.5 42.5413 5.5 44Z" fill="white"/>
<path d="M49.5 33C53.8761 33 58.0729 31.2616 61.1673 28.1673C64.2616 25.0729 66 20.8761 66 16.5C66 12.1239 64.2616 7.92709 61.1673 4.83274C58.0729 1.73839 53.8761 0 49.5 0C45.1239 0 40.9271 1.73839 37.8327 4.83274C34.7384 7.92709 33 12.1239 33 16.5C33 20.8761 34.7384 25.0729 37.8327 28.1673C40.9271 31.2616 45.1239 33 49.5 33ZM38.5 16.5C38.5 13.5826 39.6589 10.7847 41.7218 8.72183C43.7847 6.65893 46.5826 5.5 49.5 5.5C52.4174 5.5 55.2153 6.65893 57.2782 8.72183C59.3411 10.7847 60.5 13.5826 60.5 16.5C60.5 19.4174 59.3411 22.2153 57.2782 24.2782C55.2153 26.3411 52.4174 27.5 49.5 27.5C46.5826 27.5 43.7847 26.3411 41.7218 24.2782C39.6589 22.2153 38.5 19.4174 38.5 16.5Z" fill="white"/>
</g>
<defs>
<clipPath id="clip0_426_2514">
<rect width="88" height="88" fill="white"/>
</clipPath>
</defs>
</svg>
