<svg width="75" height="28" viewBox="0 0 75 28" fill="none" xmlns="http://www.w3.org/2000/svg">
<g clip-path="url(#clip0_1520_78)">
<path d="M36.7549 16.2209C38.4117 16.2209 39.7549 14.8778 39.7549 13.2209C39.7549 11.5641 38.4117 10.2209 36.7549 10.2209C35.098 10.2209 33.7549 11.5641 33.7549 13.2209C33.7549 14.8778 35.098 16.2209 36.7549 16.2209Z" stroke="#4086F4" stroke-width="2" stroke-linecap="round" stroke-linejoin="round"/>
<path d="M44.1549 16.2209C44.0218 16.5226 43.9821 16.8571 44.0409 17.1815C44.0997 17.5059 44.2543 17.8053 44.4849 18.0409L44.5449 18.1009C44.7308 18.2867 44.8784 18.5073 44.979 18.7501C45.0797 18.9929 45.1315 19.2531 45.1315 19.5159C45.1315 19.7788 45.0797 20.039 44.979 20.2818C44.8784 20.5246 44.7308 20.7452 44.5449 20.9309C44.3591 21.1169 44.1386 21.2644 43.8958 21.3651C43.653 21.4657 43.3927 21.5175 43.1299 21.5175C42.8671 21.5175 42.6068 21.4657 42.364 21.3651C42.1212 21.2644 41.9006 21.1169 41.7149 20.9309L41.6549 20.8709C41.4192 20.6404 41.1199 20.4858 40.7955 20.4269C40.4711 20.3681 40.1365 20.4078 39.8349 20.5409C39.5391 20.6677 39.2869 20.8782 39.1092 21.1465C38.9315 21.4148 38.8362 21.7292 38.8349 22.0509V22.2209C38.8349 22.7514 38.6242 23.2601 38.2491 23.6352C37.874 24.0102 37.3653 24.2209 36.8349 24.2209C36.3044 24.2209 35.7957 24.0102 35.4207 23.6352C35.0456 23.2601 34.8349 22.7514 34.8349 22.2209V22.1309C34.8271 21.8 34.72 21.4789 34.5274 21.2096C34.3348 20.9404 34.0656 20.7352 33.7549 20.6209C33.4533 20.4878 33.1187 20.4481 32.7943 20.5069C32.4699 20.5658 32.1706 20.7204 31.9349 20.9509L31.8749 21.0109C31.6891 21.1969 31.4686 21.3444 31.2258 21.4451C30.983 21.5457 30.7227 21.5975 30.4599 21.5975C30.1971 21.5975 29.9368 21.5457 29.694 21.4451C29.4512 21.3444 29.2306 21.1969 29.0449 21.0109C28.8589 20.8252 28.7114 20.6046 28.6108 20.3618C28.5101 20.119 28.4583 19.8588 28.4583 19.5959C28.4583 19.3331 28.5101 19.0729 28.6108 18.8301C28.7114 18.5873 28.8589 18.3667 29.0449 18.1809L29.1049 18.1209C29.3354 17.8853 29.4901 17.5859 29.5489 17.2615C29.6077 16.9371 29.568 16.6026 29.4349 16.3009C29.3081 16.0052 29.0976 15.7529 28.8293 15.5753C28.5611 15.3976 28.2467 15.3022 27.9249 15.3009H27.7549C27.2244 15.3009 26.7157 15.0902 26.3407 14.7152C25.9656 14.3401 25.7549 13.8314 25.7549 13.3009C25.7549 12.7705 25.9656 12.2618 26.3407 11.8867C26.7157 11.5117 27.2244 11.3009 27.7549 11.3009H27.8449C28.1759 11.2932 28.4969 11.1861 28.7662 10.9935C29.0355 10.8008 29.2406 10.5317 29.3549 10.2209C29.488 9.91933 29.5277 9.58475 29.4689 9.26036C29.4101 8.93596 29.2554 8.63663 29.0249 8.40095L28.9649 8.34095C28.7789 8.1552 28.6314 7.93462 28.5308 7.69183C28.4301 7.44903 28.3783 7.18878 28.3783 6.92595C28.3783 6.66312 28.4301 6.40286 28.5308 6.16007C28.6314 5.91727 28.7789 5.69669 28.9649 5.51095C29.1506 5.32499 29.3712 5.17748 29.614 5.07683C29.8568 4.97618 30.1171 4.92437 30.3799 4.92437C30.6427 4.92437 30.903 4.97618 31.1458 5.07683C31.3886 5.17748 31.6091 5.32499 31.7949 5.51095L31.8549 5.57095C32.0906 5.80148 32.3899 5.95613 32.7143 6.01495C33.0387 6.07377 33.3733 6.03406 33.6749 5.90095H33.7549C34.0507 5.77418 34.3029 5.5637 34.4806 5.29541C34.6583 5.02712 34.7536 4.71273 34.7549 4.39095V4.22095C34.7549 3.69051 34.9656 3.18181 35.3407 2.80673C35.7157 2.43166 36.2244 2.22095 36.7549 2.22095C37.2853 2.22095 37.794 2.43166 38.1691 2.80673C38.5442 3.18181 38.7549 3.69051 38.7549 4.22095V4.31095C38.7562 4.63273 38.8515 4.94712 39.0292 5.21541C39.2069 5.4837 39.4591 5.69418 39.7549 5.82095C40.0565 5.95406 40.3911 5.99377 40.7155 5.93495C41.0399 5.87613 41.3392 5.72148 41.5749 5.49095L41.6349 5.43095C41.8206 5.24499 42.0412 5.09748 42.284 4.99683C42.5268 4.89618 42.7871 4.84437 43.0499 4.84437C43.3127 4.84437 43.573 4.89618 43.8158 4.99683C44.0586 5.09748 44.2791 5.24499 44.4649 5.43095C44.6508 5.61669 44.7984 5.83727 44.899 6.08007C44.9997 6.32286 45.0515 6.58312 45.0515 6.84595C45.0515 7.10878 44.9997 7.36903 44.899 7.61183C44.7984 7.85462 44.6508 8.0752 44.4649 8.26095L44.4049 8.32095C44.1743 8.55663 44.0197 8.85596 43.9609 9.18036C43.9021 9.50475 43.9418 9.83933 44.0749 10.1409V10.2209C44.2016 10.5167 44.4121 10.769 44.6804 10.9466C44.9487 11.1243 45.2631 11.2197 45.5849 11.2209H45.7549C46.2853 11.2209 46.794 11.4317 47.1691 11.8067C47.5442 12.1818 47.7549 12.6905 47.7549 13.2209C47.7549 13.7514 47.5442 14.2601 47.1691 14.6352C46.794 15.0102 46.2853 15.2209 45.7549 15.2209H45.6649C45.3431 15.2222 45.0287 15.3176 44.7604 15.4953C44.4921 15.6729 44.2816 15.9252 44.1549 16.2209Z" stroke="#4086F4" stroke-width="2" stroke-linecap="round" stroke-linejoin="round"/>
</g>
<path d="M71 2H55C53.8954 2 53 2.89543 53 4V8C53 9.10457 53.8954 10 55 10H71C72.1046 10 73 9.10457 73 8V4C73 2.89543 72.1046 2 71 2Z" stroke="#FF6644" stroke-width="2" stroke-linecap="round" stroke-linejoin="round"/>
<path d="M57 6H57.01" stroke="#FF6644" stroke-width="2" stroke-linecap="round" stroke-linejoin="round"/>
<path d="M20 18H4C2.89543 18 2 18.8954 2 20V24C2 25.1046 2.89543 26 4 26H20C21.1046 26 22 25.1046 22 24V20C22 18.8954 21.1046 18 20 18Z" stroke="#FFC700" stroke-width="2" stroke-linecap="round" stroke-linejoin="round"/>
<path d="M6 22H6.01" stroke="#FFC700" stroke-width="2" stroke-linecap="round" stroke-linejoin="round"/>
<defs>
<clipPath id="clip0_1520_78">
<rect width="24" height="24" fill="white" transform="translate(24.7549 1.22095)"/>
</clipPath>
</defs>
</svg>
