<svg width="28" height="28" viewBox="0 0 28 28" fill="none" xmlns="http://www.w3.org/2000/svg">
<path d="M24.9424 5.94226L14.9424 15.9523L11.9424 12.9523" stroke="#31AA52" stroke-width="2" stroke-linecap="round" stroke-linejoin="round"/>
<path d="M19.1131 6.6539C19.453 6.17475 19.3425 5.50518 18.8299 5.21803C17.2007 4.30522 15.3413 3.86332 13.4618 3.95372C11.2267 4.06122 9.09221 4.91528 7.39985 6.37928C5.70749 7.84327 4.55507 9.83259 4.12695 12.029C3.69883 14.2253 4.01975 16.5018 5.03838 18.4943C6.05701 20.4867 7.71447 22.0799 9.7456 23.019C11.7767 23.9581 14.0641 24.1888 16.2419 23.6742C18.4196 23.1596 20.3618 21.9294 21.7578 20.1805C22.9316 18.7099 23.6622 16.9439 23.8763 15.0887C23.9436 14.505 23.4656 14.0233 22.8781 14.0183C22.2907 14.0133 21.8177 14.4877 21.7336 15.0692C21.5343 16.4474 20.9717 17.755 20.095 18.8533C18.9961 20.2301 17.467 21.1986 15.7526 21.6037C14.0382 22.0088 12.2374 21.8272 10.6384 21.0879C9.03943 20.3486 7.73459 19.0943 6.93268 17.5258C6.13076 15.9573 5.87811 14.1651 6.21515 12.436C6.55219 10.7069 7.45944 9.14081 8.79174 7.98829C10.1241 6.83576 11.8044 6.16339 13.564 6.07876C14.9677 6.01125 16.3571 6.32086 17.591 6.96632C18.1116 7.23862 18.7731 7.13305 19.1131 6.6539Z" fill="#4086F4"/>
</svg>
