<svg width="124" height="69" viewBox="0 0 124 69" fill="none" xmlns="http://www.w3.org/2000/svg">
<path d="M12.42 62H9.342L4.194 54.206V62H1.116V49.364H4.194L9.342 57.194V49.364H12.42V62ZM19.2232 62.144C18.2392 62.144 17.3512 61.934 16.5592 61.514C15.7792 61.094 15.1612 60.494 14.7052 59.714C14.2612 58.934 14.0392 58.022 14.0392 56.978C14.0392 55.946 14.2672 55.04 14.7232 54.26C15.1792 53.468 15.8032 52.862 16.5952 52.442C17.3872 52.022 18.2752 51.812 19.2592 51.812C20.2432 51.812 21.1312 52.022 21.9232 52.442C22.7152 52.862 23.3392 53.468 23.7952 54.26C24.2512 55.04 24.4792 55.946 24.4792 56.978C24.4792 58.01 24.2452 58.922 23.7772 59.714C23.3212 60.494 22.6912 61.094 21.8872 61.514C21.0952 61.934 20.2072 62.144 19.2232 62.144ZM19.2232 59.48C19.8112 59.48 20.3092 59.264 20.7172 58.832C21.1372 58.4 21.3472 57.782 21.3472 56.978C21.3472 56.174 21.1432 55.556 20.7352 55.124C20.3392 54.692 19.8472 54.476 19.2592 54.476C18.6592 54.476 18.1612 54.692 17.7652 55.124C17.3692 55.544 17.1712 56.162 17.1712 56.978C17.1712 57.782 17.3632 58.4 17.7472 58.832C18.1432 59.264 18.6352 59.48 19.2232 59.48ZM29.4045 55.664C29.4045 54.416 29.6745 53.306 30.2145 52.334C30.7545 51.35 31.5045 50.588 32.4645 50.048C33.4365 49.496 34.5345 49.22 35.7585 49.22C37.2585 49.22 38.5425 49.616 39.6105 50.408C40.6785 51.2 41.3925 52.28 41.7525 53.648H38.3685C38.1165 53.12 37.7565 52.718 37.2885 52.442C36.8325 52.166 36.3105 52.028 35.7225 52.028C34.7745 52.028 34.0065 52.358 33.4185 53.018C32.8305 53.678 32.5365 54.56 32.5365 55.664C32.5365 56.768 32.8305 57.65 33.4185 58.31C34.0065 58.97 34.7745 59.3 35.7225 59.3C36.3105 59.3 36.8325 59.162 37.2885 58.886C37.7565 58.61 38.1165 58.208 38.3685 57.68H41.7525C41.3925 59.048 40.6785 60.128 39.6105 60.92C38.5425 61.7 37.2585 62.09 35.7585 62.09C34.5345 62.09 33.4365 61.82 32.4645 61.28C31.5045 60.728 30.7545 59.966 30.2145 58.994C29.6745 58.022 29.4045 56.912 29.4045 55.664ZM48.2095 62.144C47.2255 62.144 46.3375 61.934 45.5455 61.514C44.7655 61.094 44.1475 60.494 43.6915 59.714C43.2475 58.934 43.0255 58.022 43.0255 56.978C43.0255 55.946 43.2535 55.04 43.7095 54.26C44.1655 53.468 44.7895 52.862 45.5815 52.442C46.3735 52.022 47.2615 51.812 48.2455 51.812C49.2295 51.812 50.1175 52.022 50.9095 52.442C51.7015 52.862 52.3255 53.468 52.7815 54.26C53.2375 55.04 53.4655 55.946 53.4655 56.978C53.4655 58.01 53.2315 58.922 52.7635 59.714C52.3075 60.494 51.6775 61.094 50.8735 61.514C50.0815 61.934 49.1935 62.144 48.2095 62.144ZM48.2095 59.48C48.7975 59.48 49.2955 59.264 49.7035 58.832C50.1235 58.4 50.3335 57.782 50.3335 56.978C50.3335 56.174 50.1295 55.556 49.7215 55.124C49.3255 54.692 48.8335 54.476 48.2455 54.476C47.6455 54.476 47.1475 54.692 46.7515 55.124C46.3555 55.544 46.1575 56.162 46.1575 56.978C46.1575 57.782 46.3495 58.4 46.7335 58.832C47.1295 59.264 47.6215 59.48 48.2095 59.48ZM54.4864 56.96C54.4864 55.928 54.6784 55.022 55.0624 54.242C55.4584 53.462 55.9924 52.862 56.6644 52.442C57.3364 52.022 58.0864 51.812 58.9144 51.812C59.5744 51.812 60.1744 51.95 60.7144 52.226C61.2664 52.502 61.6984 52.874 62.0104 53.342V48.68H65.0884V62H62.0104V60.56C61.7224 61.04 61.3084 61.424 60.7684 61.712C60.2404 62 59.6224 62.144 58.9144 62.144C58.0864 62.144 57.3364 61.934 56.6644 61.514C55.9924 61.082 55.4584 60.476 55.0624 59.696C54.6784 58.904 54.4864 57.992 54.4864 56.96ZM62.0104 56.978C62.0104 56.21 61.7944 55.604 61.3624 55.16C60.9424 54.716 60.4264 54.494 59.8144 54.494C59.2024 54.494 58.6804 54.716 58.2484 55.16C57.8284 55.592 57.6184 56.192 57.6184 56.96C57.6184 57.728 57.8284 58.34 58.2484 58.796C58.6804 59.24 59.2024 59.462 59.8144 59.462C60.4264 59.462 60.9424 59.24 61.3624 58.796C61.7944 58.352 62.0104 57.746 62.0104 56.978ZM76.7832 56.816C76.7832 57.104 76.7652 57.404 76.7292 57.716H69.7632C69.8112 58.34 70.0092 58.82 70.3572 59.156C70.7172 59.48 71.1552 59.642 71.6712 59.642C72.4392 59.642 72.9732 59.318 73.2732 58.67H76.5492C76.3812 59.33 76.0752 59.924 75.6312 60.452C75.1992 60.98 74.6532 61.394 73.9932 61.694C73.3332 61.994 72.5952 62.144 71.7792 62.144C70.7952 62.144 69.9192 61.934 69.1512 61.514C68.3832 61.094 67.7832 60.494 67.3512 59.714C66.9192 58.934 66.7032 58.022 66.7032 56.978C66.7032 55.934 66.9132 55.022 67.3332 54.242C67.7652 53.462 68.3652 52.862 69.1332 52.442C69.9012 52.022 70.7832 51.812 71.7792 51.812C72.7512 51.812 73.6152 52.016 74.3712 52.424C75.1272 52.832 75.7152 53.414 76.1352 54.17C76.5672 54.926 76.7832 55.808 76.7832 56.816ZM73.6332 56.006C73.6332 55.478 73.4532 55.058 73.0932 54.746C72.7332 54.434 72.2832 54.278 71.7432 54.278C71.2272 54.278 70.7892 54.428 70.4292 54.728C70.0812 55.028 69.8652 55.454 69.7812 56.006H73.6332ZM93.5255 62H90.4475L85.2995 54.206V62H82.2215V49.364H85.2995L90.4475 57.194V49.364H93.5255V62ZM105.225 56.816C105.225 57.104 105.207 57.404 105.171 57.716H98.2046C98.2526 58.34 98.4506 58.82 98.7986 59.156C99.1586 59.48 99.5966 59.642 100.113 59.642C100.881 59.642 101.415 59.318 101.715 58.67H104.991C104.823 59.33 104.517 59.924 104.073 60.452C103.641 60.98 103.095 61.394 102.435 61.694C101.775 61.994 101.037 62.144 100.221 62.144C99.2366 62.144 98.3606 61.934 97.5926 61.514C96.8246 61.094 96.2246 60.494 95.7926 59.714C95.3606 58.934 95.1446 58.022 95.1446 56.978C95.1446 55.934 95.3546 55.022 95.7746 54.242C96.2066 53.462 96.8066 52.862 97.5746 52.442C98.3426 52.022 99.2246 51.812 100.221 51.812C101.193 51.812 102.057 52.016 102.813 52.424C103.569 52.832 104.157 53.414 104.577 54.17C105.009 54.926 105.225 55.808 105.225 56.816ZM102.075 56.006C102.075 55.478 101.895 55.058 101.535 54.746C101.175 54.434 100.725 54.278 100.185 54.278C99.6686 54.278 99.2306 54.428 98.8706 54.728C98.5226 55.028 98.3066 55.454 98.2226 56.006H102.075ZM110.934 62.144C110.058 62.144 109.278 61.994 108.594 61.694C107.91 61.394 107.37 60.986 106.974 60.47C106.578 59.942 106.356 59.354 106.308 58.706H109.35C109.386 59.054 109.548 59.336 109.836 59.552C110.124 59.768 110.478 59.876 110.898 59.876C111.282 59.876 111.576 59.804 111.78 59.66C111.996 59.504 112.104 59.306 112.104 59.066C112.104 58.778 111.954 58.568 111.654 58.436C111.354 58.292 110.868 58.136 110.196 57.968C109.476 57.8 108.876 57.626 108.396 57.446C107.916 57.254 107.502 56.96 107.154 56.564C106.806 56.156 106.632 55.61 106.632 54.926C106.632 54.35 106.788 53.828 107.1 53.36C107.424 52.88 107.892 52.502 108.504 52.226C109.128 51.95 109.866 51.812 110.718 51.812C111.978 51.812 112.968 52.124 113.688 52.748C114.42 53.372 114.84 54.2 114.948 55.232H112.104C112.056 54.884 111.9 54.608 111.636 54.404C111.384 54.2 111.048 54.098 110.628 54.098C110.268 54.098 109.992 54.17 109.8 54.314C109.608 54.446 109.512 54.632 109.512 54.872C109.512 55.16 109.662 55.376 109.962 55.52C110.274 55.664 110.754 55.808 111.402 55.952C112.146 56.144 112.752 56.336 113.22 56.528C113.688 56.708 114.096 57.008 114.444 57.428C114.804 57.836 114.99 58.388 115.002 59.084C115.002 59.672 114.834 60.2 114.498 60.668C114.174 61.124 113.7 61.484 113.076 61.748C112.464 62.012 111.75 62.144 110.934 62.144ZM122.484 59.39V62H120.918C119.802 62 118.932 61.73 118.308 61.19C117.684 60.638 117.372 59.744 117.372 58.508V54.512H116.148V51.956H117.372V49.508H120.45V51.956H122.466V54.512H120.45V58.544C120.45 58.844 120.522 59.06 120.666 59.192C120.81 59.324 121.05 59.39 121.386 59.39H122.484Z" fill="#1F2937"/>
<path d="M58.5629 17.2903L52.4526 23.3861L58.5629 29.5327M66.2518 17.2903L71.9547 23.3861L66.2518 29.5327M44 37V15.0044L62.2291 2L80 15.0044V37H44Z" stroke="black" stroke-width="3" stroke-linecap="round" stroke-linejoin="round"/>
</svg>
